<?xml version="1.0" encoding="utf-8"?>
<!-- Generator: Adobe Illustrator 15.1.0, SVG Export Plug-In . SVG Version: 6.00 Build 0)  -->
<!DOCTYPE svg PUBLIC "-//W3C//DTD SVG 1.1//EN" "http://www.w3.org/Graphics/SVG/1.1/DTD/svg11.dtd">
<svg version="1.1" xmlns="http://www.w3.org/2000/svg" xmlns:xlink="http://www.w3.org/1999/xlink" x="0px" y="0px" width="1900px"
	 height="1500px" viewBox="0 0 1900 1500" enable-background="new 0 0 1900 1500" xml:space="preserve">
<g id="background">
	<rect fill="#F9ECE4" width="1900" height="1501.584"/>
</g>
<g id="circle_one">
	<path fill="#EFD7CA" d="M221.237,724.837C121.125,667.061,53.932,560.246,53.932,438.03c0-183.629,151.689-332.49,338.81-332.49
		S731.552,254.4,731.552,438.03c0,183.628-151.69,332.491-338.811,332.491C330.161,770.521,271.542,753.869,221.237,724.837"/>
	<ellipse fill="#EFD7CA" cx="1438.444" cy="434.478" rx="387.242" ry="328.081"/>
	<ellipse fill="#EFD7CA" cx="858.194" cy="1150.568" rx="364.999" ry="297.588"/>
</g>
<g id="Layer_1">
	<path fill="#FFFFFB" stroke="#751B1B" stroke-width="6" stroke-miterlimit="10" d="M495.799,528.695
		c11.375,17.997,18.996,35.144,17.734,50.736c-0.833,15.597-10.551,29.638-23.92,41.435c-13.33,11.793-30.319,21.337-44.857,27.934
		c-14.895,6.595-27.338,10.243-39.785,10.243c-12.447,0-24.89-3.648-39.79-10.243c-14.543-6.597-31.543-16.141-44.875-27.934
		c-13.367-11.797-23.073-25.838-23.901-41.435c-1.257-15.592,6.363-32.739,17.738-50.736s24.081-35.142,32.01-50.736
		c8.359-15.595,11.943-29.638,15.011-41.433c3.107-11.794,5.689-21.338,12.884-27.935c6.838-6.596,18.287-10.243,30.922-10.243
		c12.635,0,24.085,3.647,30.919,10.243c7.189,6.597,9.761,16.14,12.865,27.935c3.07,11.794,6.666,25.837,15.03,41.433
		C471.72,493.553,484.423,510.698,495.799,528.695z"/>
	<path fill="#FFFFFF" stroke="#751B1B" stroke-width="6" stroke-miterlimit="10" d="M566.59,245.512
		c-19.966,59.56-56.899,100.888-82.49,92.309c-25.593-8.581-30.153-63.818-10.186-123.377c19.966-59.56,47.203-48.772,72.796-40.192
		C572.301,182.831,586.558,185.953,566.59,245.512z"/>
	
		<ellipse transform="matrix(0.9481 0.3179 -0.3179 0.9481 102.5087 -152.695)" fill="#FBB990" stroke="#751B1B" stroke-width="6" stroke-miterlimit="10" cx="519.192" cy="237.793" rx="27.386" ry="78.558"/>
	<path fill="#FFFFFF" stroke="#751B1B" stroke-width="3" stroke-miterlimit="10" d="M716.545,516.846"/>
	<path fill="#FFFFFF" stroke="#751B1B" stroke-width="6" stroke-miterlimit="10" d="M493.279,296.553"/>
	<path fill="#FFFFFF" stroke="#751B1B" stroke-width="6" stroke-miterlimit="10" d="M499.15,173.358
		c1.046-7.902,3.932-14.758,8.991-20.163c29.867-31.918,82.667,40.522,124.428,115.619c43.093,77.493,74.245,148.035,67.982,165.491
		c-6.81,18.986-75.462-56.867-136.512-118.69c-22.869-23.157-44.96-84.445-57.83-117.198"/>
	<path fill="#FFFFFF" stroke="#751B1B" stroke-width="6" stroke-miterlimit="10" d="M281.388,255.628
		c18.07,53.978,51.494,91.432,74.652,83.657c23.162-7.776,27.289-57.836,9.218-111.813c-18.069-53.978-42.717-44.201-65.877-36.424
		C276.222,198.823,263.319,201.652,281.388,255.628z"/>
	<path fill="#FBB990" stroke="#751B1B" stroke-width="6" stroke-miterlimit="10" d="M296.05,250.706
		c13.271,39.639,35.214,68.02,49.012,63.387c13.801-4.633,14.229-40.525,0.96-80.164c-13.27-39.64-35.213-68.018-49.014-63.385
		C283.21,175.177,282.781,211.066,296.05,250.706z"/>
	<path fill="#FFFFFF" stroke="#751B1B" stroke-width="6" stroke-miterlimit="10" d="M332.25,184.382
		c-0.889-7.385-3.498-13.775-8.131-18.785c-27.364-29.581-77.02,38.756-116.47,109.469c-40.708,72.97-70.28,139.314-64.65,155.592
		c6.123,17.705,70.504-53.983,127.7-112.463c23.556-24.085,46.7-91.31,58.147-118.617"/>
	<path fill="#FFFFFB" stroke="#751B1B" stroke-width="6" stroke-miterlimit="10" d="M547.503,355.068
		c0,78.549-57.347,106.29-129.327,106.29c-71.981,0-131.337-27.74-131.337-106.29s61.541-168.936,133.521-168.936
		C492.341,186.132,547.503,276.519,547.503,355.068z"/>
	<path fill="#751B1B" stroke="#751B1B" stroke-miterlimit="10" d="M364.063,336.641c0,14.168-9.933,25.653-22.187,25.653
		s-22.187-11.485-22.187-25.653c0-14.168,9.934-25.654,22.187-25.654S364.063,322.472,364.063,336.641z M350.89,324.854
		c-4.977,0-9.013,3.725-9.013,8.32c0,4.594,4.036,8.319,9.013,8.319c4.979,0,9.014-3.725,9.014-8.319
		C359.904,328.579,355.868,324.854,350.89,324.854z"/>
	<path fill="#751B1B" stroke="#751B1B" stroke-miterlimit="10" d="M494.411,336.641c0,14.168-9.934,25.653-22.187,25.653
		c-12.254,0-22.187-11.485-22.187-25.653c0-14.168,9.933-25.654,22.187-25.654C484.478,310.987,494.411,322.472,494.411,336.641z
		 M481.237,324.854c-4.978,0-9.013,3.725-9.013,8.32c0,4.594,4.035,8.319,9.013,8.319s9.013-3.725,9.013-8.319
		C490.25,328.579,486.215,324.854,481.237,324.854z"/>
	<path fill="#751B1B" stroke="#751B1B" stroke-miterlimit="10" d="M425.077,381.708c0,5.744-9.748,14.906-16.64,14.906
		c-6.892,0-16.64-10.549-16.64-16.293s9.748-10.747,16.64-10.747C415.33,369.574,425.077,375.964,425.077,381.708z"/>
	<path fill="none" stroke="#751B1B" stroke-width="3" stroke-miterlimit="10" d="M409.085,390.028
		c5.547,26.346-22.187,9.707-22.187,9.707"/>
	<path fill="none" stroke="#751B1B" stroke-width="3" stroke-miterlimit="10" d="M409.283,388.808
		c-5.547,26.346,21.98,9.707,22.186,9.707"/>
	<path fill="#FFFFFB" stroke="#751B1B" stroke-width="6" stroke-miterlimit="10" d="M335.827,633.175
		c5.765,38.242-6.611,45.689-22.893,48.146c-16.282,2.454-30.304-1.014-36.068-39.257c-5.765-38.243-1.092-96.779,15.19-99.233
		C308.337,540.376,330.062,594.933,335.827,633.175z"/>
	<path fill="#FFFFFB" stroke="#751B1B" stroke-width="6" stroke-miterlimit="10" d="M345.773,671.38
		c0,10.723-18.315,12.718-40.907,12.718c-22.591,0-40.907-1.995-40.907-12.718c0-10.721,18.316-26.109,40.907-26.109
		C327.458,645.271,345.773,660.659,345.773,671.38z"/>
	<path fill="#FFFFFB" stroke="#751B1B" stroke-width="6" stroke-miterlimit="10" d="M319.823,679.01
		c0,4.291-7.85,5.088-17.532,5.088s-17.532-0.797-17.532-5.088c0-4.288,10.425-33.739,20.107-33.739
		C314.549,645.271,319.823,674.722,319.823,679.01z"/>
	<path fill="#FFFFFB" stroke="#751B1B" stroke-width="6" stroke-miterlimit="10" d="M478.273,633.175
		c-5.765,38.242,6.612,45.689,22.894,48.146c16.282,2.454,30.303-1.014,36.068-39.257c5.765-38.243,1.092-96.779-15.19-99.233
		C505.763,540.376,484.039,594.933,478.273,633.175z"/>
	<path fill="#FFFFFB" stroke="#751B1B" stroke-width="6" stroke-miterlimit="10" d="M468.327,671.38
		c0,10.723,18.315,12.718,40.907,12.718c22.592,0,40.907-1.995,40.907-12.718c0-10.721-18.315-26.109-40.907-26.109
		C486.642,645.271,468.327,660.659,468.327,671.38z"/>
	<path fill="#FFFFFB" stroke="#751B1B" stroke-width="6" stroke-miterlimit="10" d="M494.277,679.01
		c0,4.291,7.85,5.088,17.532,5.088s17.532-0.797,17.532-5.088c0-4.288-10.425-33.739-20.107-33.739
		C499.551,645.271,494.277,674.722,494.277,679.01z"/>
	<path fill="#FFFFFB" stroke="#751B1B" stroke-width="6" stroke-miterlimit="10" d="M371.364,578.293
		c1.545,8.554,2.405,18.052,2.405,28.057c0,37.525,12.161,73.492-2.773,73.492c-14.934,0-51.307-35.967-51.307-73.492
		c0-18.441,2.924-35.166,7.669-47.409"/>
	<path fill="#FFFFFB" stroke="#751B1B" stroke-width="6" stroke-miterlimit="10" d="M403.583,675.444
		c0,10.723-18.315,12.718-40.906,12.718c-22.593,0-40.907-1.995-40.907-12.718c0-10.721,18.314-26.109,40.907-26.109
		C385.269,649.335,403.583,664.724,403.583,675.444z"/>
	<path fill="#FFFFFB" stroke="#751B1B" stroke-width="6" stroke-miterlimit="10" d="M377.633,683.075
		c0,4.288-7.85,5.087-17.531,5.087c-9.683,0-17.532-0.799-17.532-5.087c0-4.289,10.425-33.74,20.108-33.74
		C372.359,649.335,377.633,678.786,377.633,683.075z"/>
	<path fill="#FFFFFB" stroke="#751B1B" stroke-width="6" stroke-miterlimit="10" d="M438.465,574.231
		c-1.543,8.553-2.405,18.052-2.405,28.056c0,37.525-12.16,73.492,2.773,73.492s51.307-35.967,51.307-73.492
		c0-18.441-2.924-35.167-7.669-47.409"/>
	<path fill="#FFFFFB" stroke="#751B1B" stroke-width="6" stroke-miterlimit="10" d="M406.246,671.382
		c0,10.723,18.315,12.718,40.907,12.718s40.907-1.995,40.907-12.718c0-10.721-18.316-26.11-40.907-26.11
		S406.246,660.661,406.246,671.382z"/>
	<path fill="#FFFFFB" stroke="#751B1B" stroke-width="6" stroke-miterlimit="10" d="M432.197,677.124
		c0,4.052,7.849,4.804,17.531,4.804s17.532-0.752,17.532-4.804c0-4.047-10.425-31.853-20.107-31.853
		S432.197,673.077,432.197,677.124z"/>
	<path fill="#C8DF91" stroke="#751A1B" stroke-width="6" stroke-miterlimit="10" d="M936.425,1161.165
		c11.889,18.81,19.854,36.729,18.535,53.027c-0.871,16.3-11.027,30.977-25,43.304c-13.932,12.326-31.688,22.302-46.883,29.195
		c-15.566,6.894-28.572,10.706-41.581,10.706c-13.008,0-26.013-3.813-41.585-10.706c-15.2-6.894-32.967-16.869-46.901-29.195
		c-13.97-12.327-24.115-27.004-24.98-43.304c-1.314-16.297,6.65-34.218,18.539-53.027c11.889-18.81,25.167-36.729,33.455-53.027
		c8.737-16.299,12.482-30.976,15.688-43.303c3.247-12.326,5.947-22.302,13.466-29.196c7.147-6.894,19.113-10.705,32.318-10.705
		c13.206,0,25.173,3.812,32.315,10.705c7.514,6.895,10.201,16.869,13.445,29.196c3.209,12.327,6.967,27.004,15.709,43.303
		C911.259,1124.437,924.536,1142.355,936.425,1161.165z"/>
	<path fill="#C8DF91" stroke="#751A1B" stroke-width="6" stroke-miterlimit="10" d="M993.496,952.861
		c0-22.012-17.518-39.855-39.13-39.855c-18.741,0-34.396,13.422-38.227,31.341c-18.872-12.413-41.096-20.472-65.223-20.472
		c-23.647,0-46.161,7.829-65.714,19.947c-1.622-20.494-18.453-36.613-38.991-36.613c-21.611,0-39.13,17.844-39.13,39.855
		c0,19.682,14.013,36.021,32.429,39.26c-13.524,18.623-21.478,38.412-21.478,54.77c0,45.4,59.073,41.857,130.71,41.857
		c71.637,0,128.71,2.701,128.71-42.698c0-14.526-5.627-31.671-15.619-48.271C979.873,988.431,993.496,972.27,993.496,952.861z"/>
	<path fill="#C8DF91" stroke="#751A1B" stroke-width="6" stroke-miterlimit="10" d="M769.231,1270.362
		c6.025,39.969-6.91,47.752-23.927,50.318c-17.017,2.564-31.671-1.059-37.696-41.029c-6.025-39.969-1.141-101.148,15.876-103.713
		S763.206,1230.394,769.231,1270.362z"/>
	<path fill="#C8DF91" stroke="#751A1B" stroke-width="6" stroke-miterlimit="10" d="M779.627,1310.292
		c0,11.207-19.142,13.291-42.754,13.291c-23.611,0-42.754-2.084-42.754-13.291c0-11.205,19.143-27.289,42.754-27.289
		C760.485,1283.003,779.627,1299.087,779.627,1310.292z"/>
	<path fill="#C8DF91" stroke="#751A1B" stroke-width="6" stroke-miterlimit="10" d="M918.108,1270.362
		c-6.025,39.969,6.91,47.752,23.927,50.318c17.017,2.564,31.672-1.059,37.697-41.029c6.025-39.969,1.141-101.148-15.877-103.713
		C946.839,1173.374,924.134,1230.394,918.108,1270.362z"/>
	<path fill="#C8DF91" stroke="#751A1B" stroke-width="6" stroke-miterlimit="10" d="M907.713,1310.292
		c0,11.207,19.142,13.291,42.754,13.291c23.611,0,42.754-2.084,42.754-13.291c0-11.205-19.143-27.289-42.754-27.289
		C926.854,1283.003,907.713,1299.087,907.713,1310.292z"/>
	<path fill="#C8DF91" stroke="#751A1B" stroke-width="6" stroke-miterlimit="10" d="M934.835,1318.266
		c0,4.484,8.204,5.317,18.323,5.317s18.324-0.833,18.324-5.317c0-4.482-10.896-35.263-21.016-35.263
		C940.347,1283.003,934.835,1313.783,934.835,1318.266z"/>
	<path fill="#C8DF91" stroke="#751A1B" stroke-width="6" stroke-miterlimit="10" d="M806.373,1213.003
		c1.615,8.938,2.514,18.866,2.514,29.321c0,39.221,12.709,76.812-2.898,76.812s-53.623-37.591-53.623-76.812
		c0-19.273,3.056-36.753,8.016-49.548"/>
	<path fill="#C8DF91" stroke="#751A1B" stroke-width="6" stroke-miterlimit="10" d="M840.047,1314.54
		c0,11.206-19.142,13.29-42.753,13.29c-23.612,0-42.754-2.084-42.754-13.29s19.142-27.29,42.754-27.29
		C820.905,1287.25,840.047,1303.334,840.047,1314.54z"/>
	<path fill="#C8DF91" stroke="#751A1B" stroke-width="6" stroke-miterlimit="10" d="M812.924,1322.514
		c0,4.483-8.204,5.316-18.323,5.316c-10.12,0-18.323-0.833-18.323-5.316c0-4.482,10.896-35.264,21.015-35.264
		C807.413,1287.25,812.924,1318.031,812.924,1322.514z"/>
	<path fill="#C8DF91" stroke="#751A1B" stroke-width="6" stroke-miterlimit="10" d="M876.503,1208.757
		c-1.613,8.938-2.514,18.866-2.514,29.321c0,39.221-12.709,76.812,2.898,76.812s53.623-37.591,53.623-76.812
		c0-19.273-3.057-36.753-8.016-49.548"/>
	<path fill="#C8DF91" stroke="#751A1B" stroke-width="6" stroke-miterlimit="10" d="M842.83,1310.294
		c0,11.206,19.142,13.29,42.753,13.29s42.754-2.084,42.754-13.29s-19.143-27.29-42.754-27.29S842.83,1299.088,842.83,1310.294z"/>
	<path fill="#C8DF91" stroke="#751A1B" stroke-width="6" stroke-miterlimit="10" d="M869.952,1316.296
		c0,4.233,8.203,5.02,18.322,5.02s18.324-0.786,18.324-5.02c0-4.231-10.896-33.292-21.016-33.292S869.952,1312.064,869.952,1316.296
		z"/>
	<path fill="#C8DF91" stroke="#751A1B" stroke-width="6" stroke-miterlimit="10" d="M746.212,1318.268
		c0,4.483-8.204,5.316-18.323,5.316c-10.12,0-18.323-0.833-18.323-5.316c0-4.482,10.896-35.264,21.016-35.264
		C740.7,1283.004,746.212,1313.785,746.212,1318.268z"/>
	<ellipse fill="#751A1B" cx="955.103" cy="951.411" rx="19.383" ry="17.647"/>
	<ellipse fill="#FFFFFF" cx="962.893" cy="945.808" rx="5.791" ry="5.604"/>
	<ellipse fill="#751A1B" cx="748.212" cy="951.411" rx="19.383" ry="17.647"/>
	<ellipse fill="#FFFFFF" cx="756.002" cy="945.808" rx="5.79" ry="5.604"/>
	<path fill="none" stroke="#751A1B" stroke-width="6" stroke-linecap="round" stroke-miterlimit="10" d="M844.34,983.893
		c0,9.396,27.401,23,42.401-8"/>
	<path fill="none" stroke="#751A1B" stroke-width="6" stroke-linecap="round" stroke-miterlimit="10" d="M844.741,983.893
		c0,9.396-27.402,23-42.402-8"/>
	
		<line fill="none" stroke="#751B1B" stroke-width="6" stroke-miterlimit="10" x1="506.195" y1="1321.359" x2="1251.74" y2="1325.808"/>
	<path fill="#FACBD6" stroke="#751B1B" stroke-width="6" stroke-miterlimit="10" d="M605.706,1313.425
		c0,0-13.736-31.092-7.582-65.288c6.152-34.197,29.864-58.551,29.864-58.551s13.735,31.093,7.582,65.288
		C629.416,1289.071,605.706,1313.425,605.706,1313.425z"/>
	<path fill="#FACBD6" stroke="#751B1B" stroke-width="6" stroke-miterlimit="10" d="M586.008,1307.073
		c0,0-21.029-26.705-23.563-61.357c-2.534-34.653,14.384-64.134,14.384-64.134s21.029,26.705,23.563,61.357
		C602.926,1277.593,586.008,1307.073,586.008,1307.073z"/>
	<path fill="#FACBD6" stroke="#751B1B" stroke-width="6" stroke-miterlimit="10" d="M594.259,1320.031
		c0,0,31.313-13.229,50.267-42.348c18.955-29.121,18.378-63.106,18.378-63.106s-31.311,13.229-50.266,42.348
		C593.683,1286.047,594.259,1320.031,594.259,1320.031z"/>
	<path fill="#FACBD6" stroke="#751B1B" stroke-width="6" stroke-miterlimit="10" d="M602.898,1321.293
		c0,0,33.358-6.531,57.877-31.149c24.519-24.62,30.918-58.001,30.918-58.001s-33.357,6.532-57.876,31.149
		C609.298,1287.912,602.898,1321.293,602.898,1321.293z"/>
	<path fill="#FACBD6" stroke="#751B1B" stroke-width="6" stroke-miterlimit="10" d="M598.898,1321.839
		c0,0-5.985-33.459-30.199-58.378c-24.214-24.919-57.487-31.864-57.487-31.864s5.986,33.46,30.199,58.379
		C565.625,1314.895,598.898,1321.839,598.898,1321.839z"/>
	<path fill="#FACBD6" stroke="#751B1B" stroke-width="6" stroke-miterlimit="10" d="M601.77,1321.07c0,0-0.148-33.991-19.722-62.699
		c-19.573-28.708-51.158-41.266-51.158-41.266s0.148,33.991,19.72,62.698C570.183,1308.513,601.77,1321.07,601.77,1321.07z"/>
	<path fill="#FACBD6" stroke="#751B1B" stroke-width="6" stroke-miterlimit="10" d="M1094.643,1323.063
		c0,0-13.736-31.092-7.582-65.288c6.152-34.197,29.861-58.551,29.861-58.551s13.736,31.093,7.582,65.288
		C1118.35,1298.709,1094.643,1323.063,1094.643,1323.063z"/>
	<path fill="#FACBD6" stroke="#751B1B" stroke-width="6" stroke-miterlimit="10" d="M1090.75,1315.284
		c0,0-21.027-26.705-23.563-61.357c-2.533-34.653,14.385-64.134,14.385-64.134s21.029,26.705,23.563,61.357
		C1107.668,1285.804,1090.75,1315.284,1090.75,1315.284z"/>
	<path fill="#FACBD6" stroke="#751B1B" stroke-width="6" stroke-miterlimit="10" d="M1083.195,1329.669
		c0,0,31.311-13.229,50.264-42.348c18.955-29.121,18.379-63.106,18.379-63.106s-31.311,13.229-50.264,42.348
		C1082.619,1295.685,1083.195,1329.669,1083.195,1329.669z"/>
	<path fill="#FACBD6" stroke="#751B1B" stroke-width="6" stroke-miterlimit="10" d="M1091.834,1330.931
		c0,0,33.357-6.531,57.875-31.149c24.52-24.62,30.918-58.001,30.918-58.001s-33.357,6.532-57.875,31.149
		C1098.234,1297.55,1091.834,1330.931,1091.834,1330.931z"/>
	<path fill="#FACBD6" stroke="#751B1B" stroke-width="6" stroke-miterlimit="10" d="M1103.641,1330.05
		c0,0-5.984-33.459-30.197-58.378c-24.215-24.919-57.488-31.864-57.488-31.864s5.986,33.46,30.199,58.379
		C1070.369,1323.105,1103.641,1330.05,1103.641,1330.05z"/>
	<path fill="#FACBD6" stroke="#751B1B" stroke-width="6" stroke-miterlimit="10" d="M1106.512,1329.281
		c0,0-0.148-33.991-19.721-62.699s-51.158-41.266-51.158-41.266s0.148,33.991,19.721,62.698
		C1074.926,1316.724,1106.512,1329.281,1106.512,1329.281z"/>
	
		<line fill="none" stroke="#751B1B" stroke-width="6" stroke-miterlimit="10" x1="1130.928" y1="663.791" x2="1778.457" y2="668.238"/>
	<path fill="#F8F2AC" stroke="#751B1B" stroke-width="6" stroke-miterlimit="10" d="M1239.807,650.184
		c0.485,15.324-14.177,18.639-32.374,19.216c-18.199,0.577-33.042-1.803-33.528-17.127c-0.486-15.322,15.773-121.158,33.973-121.735
		C1226.074,529.961,1239.321,634.861,1239.807,650.184z"/>
	<path fill="#A25C38" stroke="#751B1B" stroke-width="6" stroke-miterlimit="10" d="M1262.462,538.438
		c0,22.175-29.846,23.317-61.821,23.317c-31.975,0-52.571-1.143-52.571-23.317c0-22.176,20.597-56.987,52.571-56.987
		C1232.616,481.452,1262.462,516.263,1262.462,538.438z"/>
	<path fill="#F8F2AC" stroke="#751B1B" stroke-width="6" stroke-miterlimit="10" d="M1199.085,635.874
		c2.453,8.451-5.226,12.386-15.261,15.301c-10.037,2.915-18.629,3.708-21.084-4.743c-2.455-8.449-8.503-69.612,1.533-72.527
		C1174.309,570.989,1196.63,627.425,1199.085,635.874z"/>
	<path fill="#A25C38" stroke="#751B1B" stroke-width="6" stroke-miterlimit="10" d="M1195.749,570.515
		c3.162,12.33-13.27,17.22-31.048,21.778c-17.777,4.558-29.392,6.86-32.553-5.47c-3.162-12.329,3.326-34.62,21.104-39.179
		C1171.031,543.086,1192.588,558.186,1195.749,570.515z"/>
	<path fill="#FBB98B" stroke="#751B1B" stroke-width="6" stroke-miterlimit="10" d="M181.71,602.037"/>
	<path fill="#FBB98B" stroke="#751B1B" stroke-width="11" stroke-miterlimit="10" d="M199.968,624.109"/>
	<path fill="#FBB98B" stroke="#751B1B" stroke-width="2" stroke-miterlimit="10" d="M187.406,612.424"/>
	<path fill="#FBB98B" stroke="#751B1B" stroke-width="6" stroke-miterlimit="10" d="M585.124,594.674"/>
	<path fill="#FBB98B" stroke="#751B1B" stroke-width="11" stroke-miterlimit="10" d="M588.391,623.817"/>
	<path fill="#FBB98B" stroke="#751B1B" stroke-width="2" stroke-miterlimit="10" d="M577.922,610.225"/>
	<path fill="#FBB98C" stroke="#751B1B" stroke-width="6" stroke-miterlimit="10" d="M1764.617,592.351
		c0,0-61.255,54.692-136.816,54.692s-136.816-54.692-136.816-54.692s61.255-54.691,136.816-54.691
		S1764.617,592.351,1764.617,592.351z"/>
	<path fill="#FFFFFF" d="M1764.23,592.013c-2.891-2.506-21.952-18.598-50.46-32.628c-10.537,5.21-30.371,17.69-35.802,17.74
		c7.377-0.068,38.927,1.496,44.323,8.256c9.413,11.791-21.468,23.237-30.562,28.343c12.897-0.209,25.8,0.012,38.694-0.198
		c-8.617,4.478-19.521,9.917-26.84,16.519c33.795-14.748,56.992-34.199,60.547-37.271
		C1764.163,592.52,1764.202,592.269,1764.23,592.013z"/>
	<path fill="#FBB98C" stroke="#751B1B" stroke-width="6" stroke-miterlimit="10" d="M1355.799,224.896
		c20.068,30.733-4.773,39.192-27.156,53.808c-22.386,14.617-39.935,33.841-60.003,3.108
		c-20.069-30.734-87.419-123.373-32.411-125.658C1255.373,155.359,1335.729,194.163,1355.799,224.896z"/>
	<path fill="#A25C38" stroke="#751B1B" stroke-width="6" stroke-miterlimit="10" d="M1327.35,226.055
		c10.66,16.325-2.535,20.817-14.426,28.582c-11.889,7.764-21.209,17.974-31.869,1.649c-10.66-16.322-46.434-65.529-17.215-66.743
		C1274.009,189.121,1316.69,209.733,1327.35,226.055z"/>
	<path fill="#FBB98C" stroke="#751B1B" stroke-width="6" stroke-miterlimit="10" d="M1466.454,224.896
		c-20.068,30.733,4.773,39.192,27.157,53.808c22.385,14.617,39.934,33.841,60.002,3.108c20.069-30.734,87.42-123.373,32.411-125.658
		C1566.879,155.359,1486.523,194.163,1466.454,224.896z"/>
	<path fill="#A25C38" stroke="#751B1B" stroke-width="6" stroke-miterlimit="10" d="M1494.903,226.055
		c-10.66,16.325,2.536,20.817,14.425,28.582c11.89,7.764,21.21,17.974,31.871,1.649c10.658-16.322,46.433-65.529,17.215-66.743
		C1548.244,189.121,1505.563,209.733,1494.903,226.055z"/>
	<path fill="#FBB98C" stroke="#751B1B" stroke-width="6" stroke-miterlimit="10" d="M1507.725,497.56
		c11.889,18.81,19.854,36.729,18.535,53.027c-0.871,16.3-11.027,30.977-25,43.304c-13.932,12.326-31.688,22.302-46.883,29.195
		c-15.566,6.895-28.572,10.707-41.58,10.707c-13.009,0-26.014-3.813-41.586-10.707c-15.2-6.893-32.967-16.869-46.9-29.195
		c-13.971-12.327-24.115-27.004-24.98-43.304c-1.314-16.297,6.65-34.218,18.539-53.027s25.167-36.729,33.455-53.027
		c8.736-16.299,12.482-30.976,15.688-43.303c3.248-12.326,5.947-22.302,13.467-29.196c7.146-6.894,19.112-10.706,32.318-10.706
		c13.205,0,25.172,3.812,32.314,10.706c7.514,6.894,10.201,16.869,13.445,29.196c3.209,12.327,6.967,27.004,15.709,43.303
		C1482.559,460.832,1495.836,478.75,1507.725,497.56z"/>
	<path fill="#FBB98C" stroke="#751B1B" stroke-width="6" stroke-miterlimit="10" d="M1340.531,606.757
		c6.025,39.969-6.91,47.752-23.927,50.319c-17.017,2.564-31.671-1.059-37.696-41.029c-6.025-39.969-1.141-101.149,15.876-103.713
		S1334.506,566.789,1340.531,606.757z"/>
	<path fill="#A25C38" stroke="#751B1B" stroke-width="6" stroke-miterlimit="10" d="M1350.927,646.688
		c0,11.207-19.142,13.291-42.754,13.291c-23.611,0-42.754-2.084-42.754-13.291c0-11.205,19.143-27.289,42.754-27.289
		C1331.785,619.398,1350.927,635.482,1350.927,646.688z"/>
	<path fill="#A25C38" stroke="#751B1B" stroke-width="6" stroke-miterlimit="10" d="M1323.805,654.66
		c0,4.484-8.204,5.318-18.323,5.318s-18.323-0.834-18.323-5.318c0-4.482,10.896-35.262,21.015-35.262
		C1318.293,619.398,1323.805,650.178,1323.805,654.66z"/>
	<path fill="#FBB98C" stroke="#751B1B" stroke-width="6" stroke-miterlimit="10" d="M1489.408,606.757
		c-6.025,39.969,6.91,47.752,23.927,50.319c17.017,2.564,31.671-1.059,37.696-41.029c6.025-39.969,1.141-101.149-15.876-103.713
		S1495.434,566.789,1489.408,606.757z"/>
	<path fill="#A25C38" stroke="#751B1B" stroke-width="6" stroke-miterlimit="10" d="M1479.013,646.688
		c0,11.207,19.142,13.291,42.754,13.291c23.611,0,42.754-2.084,42.754-13.291c0-11.205-19.143-27.289-42.754-27.289
		C1498.154,619.398,1479.013,635.482,1479.013,646.688z"/>
	<path fill="#A25C38" stroke="#751B1B" stroke-width="6" stroke-miterlimit="10" d="M1506.135,654.66
		c0,4.484,8.204,5.318,18.323,5.318s18.323-0.834,18.323-5.318c0-4.482-10.896-35.262-21.015-35.262
		C1511.646,619.398,1506.135,650.178,1506.135,654.66z"/>
	<path fill="#FBB98C" stroke="#751B1B" stroke-width="6" stroke-miterlimit="10" d="M1377.673,549.398
		c1.614,8.938,2.515,18.866,2.515,29.321c0,39.22,12.709,76.812-2.898,76.812c-15.608,0-53.623-37.592-53.623-76.812
		c0-19.273,3.055-36.753,8.016-49.548"/>
	<path fill="#A25C38" stroke="#751B1B" stroke-width="6" stroke-miterlimit="10" d="M1411.347,650.936
		c0,11.205-19.142,13.289-42.753,13.289c-23.613,0-42.754-2.084-42.754-13.289c0-11.207,19.141-27.291,42.754-27.291
		C1392.205,623.645,1411.347,639.729,1411.347,650.936z"/>
	<path fill="#A25C38" stroke="#751B1B" stroke-width="6" stroke-miterlimit="10" d="M1384.225,658.908
		c0,4.484-8.204,5.316-18.323,5.316c-10.12,0-18.323-0.832-18.323-5.316c0-4.482,10.896-35.264,21.016-35.264
		C1378.713,623.645,1384.225,654.426,1384.225,658.908z"/>
	<path fill="#FBB98C" stroke="#751B1B" stroke-width="6" stroke-miterlimit="10" d="M1447.803,545.152
		c-1.613,8.938-2.514,18.866-2.514,29.321c0,39.221-12.709,76.812,2.898,76.812s53.623-37.591,53.623-76.812
		c0-19.273-3.057-36.753-8.016-49.548"/>
	<path fill="#A25C38" stroke="#751B1B" stroke-width="6" stroke-miterlimit="10" d="M1414.129,646.689
		c0,11.205,19.143,13.289,42.754,13.289s42.754-2.084,42.754-13.289c0-11.207-19.143-27.291-42.754-27.291
		S1414.129,635.482,1414.129,646.689z"/>
	<path fill="#A25C38" stroke="#751B1B" stroke-width="6" stroke-miterlimit="10" d="M1441.252,652.691
		c0,4.232,8.203,5.02,18.322,5.02s18.324-0.787,18.324-5.02s-10.896-33.293-21.016-33.293S1441.252,648.459,1441.252,652.691z"/>
	<path fill="#FBB98C" stroke="#751B1B" stroke-width="6" stroke-miterlimit="10" d="M1593.357,336.391
		c0,0-80.243,93.969-179.229,93.969S1234.9,336.391,1234.9,336.391s80.243-154.97,179.229-154.97S1593.357,336.391,1593.357,336.391
		z"/>
	<path fill="#FFFEFB" d="M1235.002,336.197c-0.061,0.115-0.102,0.193-0.102,0.193s80.243,93.969,179.229,93.969
		s179.229-93.969,179.229-93.969s-0.042-0.079-0.103-0.193c-52.292-5.713-113.584-9.002-179.126-9.002
		C1348.588,327.195,1287.297,330.484,1235.002,336.197z"/>
	<path fill="#751B1B" stroke="#751B1B" stroke-miterlimit="10" d="M1487.629,300.384c0,14.808-10.382,26.812-23.188,26.812
		s-23.188-12.004-23.188-26.812s10.382-26.812,23.188-26.812S1487.629,285.576,1487.629,300.384z M1473.86,288.065
		c-5.202,0-9.42,3.893-9.42,8.696c0,4.802,4.218,8.695,9.42,8.695s9.421-3.893,9.421-8.695
		C1483.281,291.958,1479.063,288.065,1473.86,288.065z"/>
	<path fill="#751B1B" stroke="#751B1B" stroke-miterlimit="10" d="M1377.555,300.383c0,14.808-10.383,26.812-23.189,26.812
		s-23.188-12.004-23.188-26.812c0-14.808,10.381-26.812,23.188-26.812S1377.555,285.576,1377.555,300.383z M1363.785,288.064
		c-5.201,0-9.42,3.893-9.42,8.696c0,4.802,4.219,8.695,9.42,8.695c5.203,0,9.422-3.893,9.422-8.695
		C1373.207,291.958,1368.988,288.064,1363.785,288.064z"/>
	<path fill="#751B1B" stroke="#751B1B" stroke-miterlimit="10" d="M1428.738,339.877c0,6.003-10.188,15.579-17.391,15.579
		c-7.204,0-17.392-11.025-17.392-17.028s10.188-11.232,17.392-11.232C1418.551,327.195,1428.738,333.874,1428.738,339.877z"/>
	<path fill="none" stroke="#751B1B" stroke-width="3" stroke-miterlimit="10" d="M1411.243,354.185
		c5.798,27.536-23.188,10.145-23.188,10.145"/>
	<path fill="none" stroke="#751B1B" stroke-width="3" stroke-miterlimit="10" d="M1411.45,352.909
		c-5.798,27.536,22.973,10.145,23.188,10.145"/>
	
		<ellipse transform="matrix(0.9864 0.1644 -0.1644 0.9864 98.5717 -93.6112)" fill="#C8DF92" stroke="#751B1B" stroke-width="6" stroke-miterlimit="10" cx="614.769" cy="548.643" rx="7.187" ry="48.372"/>
	
		<ellipse transform="matrix(0.9015 0.4328 -0.4328 0.9015 304.3219 -218.3329)" fill="#C8DF92" stroke="#751B1B" stroke-width="6" stroke-miterlimit="10" cx="631.771" cy="559.334" rx="7.187" ry="44.499"/>
	
		<ellipse transform="matrix(0.9963 -0.0864 0.0864 0.9963 -45.2805 53.4418)" fill="#C8DF92" stroke="#751B1B" stroke-width="6" stroke-miterlimit="10" cx="595.093" cy="550.119" rx="7.187" ry="46.419"/>
	<path fill="#FBB98B" stroke="#751B1B" stroke-width="6" stroke-miterlimit="10" d="M572.918,601.081
		c2.311-15.014,17.194-15.578,35.021-12.835c17.827,2.744,31.851,7.757,29.54,22.771c-2.31,15.008-37.368,115.127-55.198,112.384
		C564.456,720.655,570.61,616.089,572.918,601.081z"/>
	
		<line fill="#FBB98B" stroke="#751B1B" stroke-width="6" stroke-miterlimit="10" x1="586.42" y1="602.143" x2="602.711" y2="604.857"/>
	
		<line fill="#FBB98B" stroke="#751B1B" stroke-width="6" stroke-miterlimit="10" x1="576.8" y1="611.107" x2="584.706" y2="612.427"/>
	
		<line fill="#FBB98B" stroke="#751B1B" stroke-width="6" stroke-miterlimit="10" x1="601.484" y1="680.632" x2="614.363" y2="680.632"/>
	
		<line fill="#FBB98B" stroke="#751B1B" stroke-width="6" stroke-miterlimit="10" x1="594.083" y1="638.237" x2="606.767" y2="640.352"/>
	
		<line fill="#FBB98B" stroke="#751B1B" stroke-width="6" stroke-miterlimit="10" x1="613.197" y1="620.285" x2="621.382" y2="621.648"/>
	
		<line fill="#FBB98B" stroke="#751B1B" stroke-width="6" stroke-miterlimit="10" x1="575.106" y1="645.644" x2="587.205" y2="647.66"/>
	
		<line fill="#FBB98B" stroke="#751B1B" stroke-width="6" stroke-miterlimit="10" x1="587.094" y1="689.219" x2="598.462" y2="689.219"/>
	
		<line fill="#FBB98B" stroke="#751B1B" stroke-width="6" stroke-miterlimit="10" x1="578.836" y1="660.565" x2="588.555" y2="662.187"/>
	
		<line fill="#FBB98B" stroke="#751B1B" stroke-width="6" stroke-miterlimit="10" x1="577.665" y1="705.082" x2="584.645" y2="705.082"/>
	<line fill="none" stroke="#751B1B" stroke-width="6" stroke-miterlimit="10" x1="106.735" y1="687.26" x2="690.506" y2="688.162"/>
</g>
<g id="Layer_3">
	
		<ellipse transform="matrix(0.9864 0.1644 -0.1644 0.9864 92.836 -28.2352)" fill="#C8DF92" stroke="#751B1B" stroke-width="6" stroke-miterlimit="10" cx="216.98" cy="546.683" rx="7.187" ry="48.373"/>
	
		<ellipse transform="matrix(0.9015 0.4328 -0.4328 0.9015 264.2862 -46.3599)" fill="#C8DF92" stroke="#751B1B" stroke-width="6" stroke-miterlimit="10" cx="233.981" cy="557.375" rx="7.187" ry="44.498"/>
	
		<ellipse transform="matrix(0.9963 -0.0863 0.0863 0.9963 -46.5582 19.067)" fill="#C8DF92" stroke="#751B1B" stroke-width="6" stroke-miterlimit="10" cx="197.304" cy="548.158" rx="7.187" ry="46.42"/>
	<path fill="#FBB98B" stroke="#751B1B" stroke-width="6" stroke-miterlimit="10" d="M175.129,599.121
		c2.311-15.014,17.194-15.578,35.021-12.834c17.827,2.744,31.851,7.757,29.54,22.771c-2.309,15.009-37.368,115.126-55.197,112.383
		C166.666,718.696,172.82,614.13,175.129,599.121z"/>
	
		<line fill="#FBB98B" stroke="#751B1B" stroke-width="6" stroke-miterlimit="10" x1="188.631" y1="600.182" x2="204.922" y2="602.898"/>
	
		<line fill="#FBB98B" stroke="#751B1B" stroke-width="6" stroke-miterlimit="10" x1="179.011" y1="609.147" x2="186.917" y2="610.466"/>
	
		<line fill="#FBB98B" stroke="#751B1B" stroke-width="6" stroke-miterlimit="10" x1="203.695" y1="678.673" x2="216.574" y2="678.673"/>
	
		<line fill="#FBB98B" stroke="#751B1B" stroke-width="6" stroke-miterlimit="10" x1="196.294" y1="636.277" x2="208.977" y2="638.393"/>
	
		<line fill="#FBB98B" stroke="#751B1B" stroke-width="6" stroke-miterlimit="10" x1="215.408" y1="618.325" x2="223.593" y2="619.689"/>
	
		<line fill="#FBB98B" stroke="#751B1B" stroke-width="6" stroke-miterlimit="10" x1="177.316" y1="643.684" x2="189.415" y2="645.7"/>
	
		<line fill="#FBB98B" stroke="#751B1B" stroke-width="6" stroke-miterlimit="10" x1="189.304" y1="687.26" x2="200.672" y2="687.26"/>
	
		<line fill="#FBB98B" stroke="#751B1B" stroke-width="6" stroke-miterlimit="10" x1="181.046" y1="658.605" x2="190.765" y2="660.226"/>
	
		<line fill="#FBB98B" stroke="#751B1B" stroke-width="6" stroke-miterlimit="10" x1="179.875" y1="703.122" x2="186.855" y2="703.122"/>
</g>
<g id="chest">
	<path fill="#FFFFFB" stroke="#751B1B" stroke-width="6" stroke-miterlimit="10" d="M1422.659,407.496"/>
	<path fill="#FFFFFB" stroke="#751B1B" stroke-width="6" stroke-miterlimit="10" d="M1392.641,413.308"/>
</g>
<g id="rec">
	<rect x="121.858" y="695.68" fill="#F9ECE4" width="566.223" height="191.325"/>
	<rect x="129.52" y="688.162" fill="#F9ECE4" width="560.986" height="82.358"/>
	<rect x="1130.928" y="663.791" fill="#F9ECE4" width="647.529" height="183.627"/>
	<rect x="506.195" y="1330.054" fill="#F9ECE4" width="704" height="44.53"/>
	<rect x="494.633" y="1374.584" fill="#F9ECE4" width="585.708" height="127"/>
</g>
</svg>
